# xmcd
#
# Track frame offsets:
#	150
#	10704
#	22151
#	34772
#	46434
#	58061
#	72528
#	87553
#	100333
#	111018
#	121515
#	136044
#	151988
#	167115
#	176412
#	190890
#	203931
#	217554
#	227977
#	242526
#
# Disc length: 3366 seconds
#
# Revision: 0
# Processed by: cddbd v1.5.2PL0 Copyright (c) Steve Scherf et al.
# Submitted via: EasyCDDAExtractor 10.0.2.1
#
DISCID=0b0d2414
DTITLE=Various Artist - foksit - 20 toivottua
DYEAR=1900
DGENRE=Dance
TTITLE0=Eila Pienim‰ki - vanhan ver‰j‰n luona
TTITLE1=reijo taipale - moody river
TTITLE2=olavi virta - armi
TTITLE3=kosti sepp‰l‰ - irja
TTITLE4=steelers - liian nuori
TTITLE5=tapio rautavaara - isois‰n olkihattu
TTITLE6=arttu suuntala - vanha kulkuri
TTITLE7=reijo viita - moskovan valot
TTITLE8=reijo taipale - s‰vel rakkauden
TTITLE9=raiho roiha - soitossa on tunnelmaa
TTITLE10=berit - katulyhdyt
TTITLE11=raimo piipponen - silm‰t kuin t‰hdet
TTITLE12=‰ss‰t - samaan tahtiin
TTITLE13=p‰ivi m‰kinen - janne parka
TTITLE14=steelers - kuolleet lehdet
TTITLE15=olavi virta - sinun silmiesi t‰hden
TTITLE16=tapio rautavaara - vain merimies voi tiet‰‰
TTITLE17=eino valtanen - hanuri ja hattu
TTITLE18=kosti sepp‰l‰ - suurin onni
TTITLE19=reijo viiita - unohtumaton ilta
EXTD=
EXTT0=
EXTT1=
EXTT2=
EXTT3=
EXTT4=
EXTT5=
EXTT6=
EXTT7=
EXTT8=
EXTT9=
EXTT10=
EXTT11=
EXTT12=
EXTT13=
EXTT14=
EXTT15=
EXTT16=
EXTT17=
EXTT18=
EXTT19=
PLAYORDER=
